<svg width="349" height="207" viewBox="0 0 349 207" fill="none" xmlns="http://www.w3.org/2000/svg">
<path d="M0.128 202V195.616L8.336 193.184C12.592 191.968 15.8347 190.144 18.064 187.712C20.496 185.28 22.4213 181.936 23.84 177.68L85.248 0.14399H110.48L171.584 178.896C173.205 183.355 175.029 186.8 177.056 189.232C179.083 191.461 182.325 193.285 186.784 194.704L191.344 195.92V202H114.128V195.92L119.296 194.4C123.755 192.981 126.389 190.752 127.2 187.712C128.213 184.672 128.011 180.923 126.592 176.464L113.824 137.248H46.64L33.568 175.856C32.1493 180.315 31.744 183.963 32.352 186.8C32.96 189.637 35.4933 191.867 39.952 193.488L46.64 195.616V202H0.128ZM49.68 128.432H111.088L81.296 36.928L49.68 128.432ZM243.808 206.256C232.256 206.256 222.426 203.013 214.32 196.528C206.416 189.84 202.464 180.315 202.464 167.952C202.464 158.224 207.125 149.307 216.448 141.2C225.973 132.891 240.869 126.811 261.136 122.96C264.581 122.149 268.533 121.44 272.992 120.832C277.653 120.021 282.213 119.211 286.672 118.4V96.816C286.672 83.0347 284.949 73.5093 281.504 68.24C278.058 62.9707 272.586 60.336 265.088 60.336H264.176C259.514 60.336 255.765 61.856 252.928 64.896C250.293 67.7333 248.57 72.496 247.76 79.184L246.848 83.136C246.24 91.2427 244.112 97.2213 240.464 101.072C236.816 104.72 232.256 106.544 226.784 106.544C221.717 106.544 217.461 105.024 214.016 101.984C210.773 98.7413 209.152 94.5867 209.152 89.52C209.152 81.2107 211.989 74.2187 217.664 68.544C223.338 62.8693 230.837 58.6133 240.16 55.776C249.685 52.9387 259.92 51.52 270.864 51.52C288.901 51.52 302.682 55.8773 312.208 64.592C321.733 73.3067 326.496 87.4933 326.496 107.152V174.944C326.496 183.659 330.65 188.016 338.96 188.016H345.952L348.992 191.36C345.344 196.021 341.29 199.568 336.832 202C332.373 204.635 326.293 205.952 318.592 205.952C309.877 205.952 302.885 203.925 297.616 199.872C292.549 195.616 289.205 190.043 287.584 183.152C281.098 190.043 274.714 195.616 268.432 199.872C262.149 204.128 253.941 206.256 243.808 206.256ZM261.44 186.8C265.493 186.8 269.344 185.888 272.992 184.064C276.64 182.24 281.2 179.2 286.672 174.944V126.304C281.402 127.115 276.032 128.128 270.56 129.344C261.845 131.371 254.752 135.12 249.28 140.592C244.01 146.064 241.376 153.461 241.376 162.784C241.376 170.891 243.2 176.971 246.848 181.024C250.698 184.875 255.562 186.8 261.44 186.8Z" fill="#262626"/>
</svg>
